<svg xmlns="http://www.w3.org/2000/svg" version="1.1" xmlns:xlink="http://www.w3.org/1999/xlink" xmlns:svgjs="http://svgjs.dev/svgjs" viewBox="0 0 14.212075255283992 12.573711719924368"><g transform="matrix(1,0,0,1,1.113566924516996,10.374144795407371)"><g><path d=" M 0.195 1.068 L 0.195 0.018000000000000016 L 0.54 0.018000000000000016 Q 0.6645 0.018000000000000016 0.768 0.05774999999999997 Q 0.8715 0.09750000000000003 0.94575 0.16725 Q 1.02 0.237 1.06125 0.3330000000000001 Q 1.1025 0.42900000000000005 1.1025 0.54 Q 1.1025 0.6555 1.05975 0.7522500000000001 Q 1.0170000000000001 0.8490000000000001 0.94275 0.9195000000000001 Q 0.8685 0.9900000000000001 0.7695 1.0290000000000001 Q 0.6705 1.068 0.558 1.068 L 0.195 1.068 M 0.3315 1.002 L 0.4965 1.002 Q 0.6195 1.002 0.70575 0.9607500000000001 Q 0.792 0.9195000000000001 0.8475 0.8535 Q 0.903 0.7875000000000001 0.9285 0.7057500000000001 Q 0.9540000000000001 0.6240000000000001 0.9540000000000001 0.543 Q 0.9540000000000001 0.45300000000000007 0.924 0.36975 Q 0.894 0.2865000000000001 0.83625 0.22275 Q 0.7785 0.15900000000000003 0.6930000000000001 0.12150000000000005 Q 0.6075 0.08400000000000007 0.4965 0.08400000000000007 L 0.3315 0.08400000000000007 L 0.3315 1.002 M 1.91552197265625 0.7590000000000001 L 2.05952197265625 1.068 L 2.20502197265625 1.068 L 1.71602197265625 0.018000000000000016 L 1.64102197265625 0.018000000000000016 L 1.1970219726562499 1.068 L 1.26602197265625 1.068 L 1.39802197265625 0.7590000000000001 L 1.91552197265625 0.7590000000000001 M 1.88402197265625 0.6915 L 1.42652197265625 0.6915 L 1.6425219726562499 0.18600000000000005 L 1.64852197265625 0.18600000000000005 L 1.88402197265625 0.6915 M 2.571013916015625 0.6300000000000001 Q 2.610013916015625 0.6405000000000001 2.655013916015625 0.6472500000000001 Q 2.700013916015625 0.654 2.7540139160156247 0.654 Q 2.8455139160156246 0.654 2.9160139160156247 0.6285000000000001 Q 2.9865139160156247 0.603 3.0337639160156247 0.5587500000000001 Q 3.0810139160156247 0.5145000000000001 3.1050139160156247 0.4567500000000001 Q 3.1290139160156247 0.399 3.1290139160156247 0.3330000000000001 Q 3.1290139160156247 0.27 3.108013916015625 0.21225000000000005 Q 3.087013916015625 0.15450000000000008 3.044263916015625 0.11175000000000002 Q 3.001513916015625 0.06900000000000006 2.937013916015625 0.043500000000000094 Q 2.872513916015625 0.018000000000000016 2.785513916015625 0.018000000000000016 L 2.434513916015625 0.018000000000000016 L 2.434513916015625 1.068 L 2.571013916015625 1.068 L 2.571013916015625 0.6300000000000001 M 2.571013916015625 0.08400000000000007 L 2.728513916015625 0.08400000000000007 Q 2.791513916015625 0.08400000000000007 2.839513916015625 0.10650000000000004 Q 2.887513916015625 0.129 2.9190139160156248 0.16575000000000006 Q 2.950513916015625 0.2025 2.966263916015625 0.24825000000000008 Q 2.982013916015625 0.29400000000000004 2.982013916015625 0.3390000000000001 Q 2.982013916015625 0.38250000000000006 2.967763916015625 0.4267500000000001 Q 2.953513916015625 0.4710000000000001 2.922013916015625 0.507 Q 2.890513916015625 0.543 2.842513916015625 0.5655 Q 2.794513916015625 0.5880000000000001 2.727013916015625 0.5880000000000001 Q 2.680513916015625 0.5880000000000001 2.641513916015625 0.58425 Q 2.6025139160156248 0.5805 2.571013916015625 0.5685 L 2.571013916015625 0.08400000000000007 M 3.2339780273437495 0.8025 Q 3.2369780273437496 0.867 3.2677280273437495 0.9195000000000001 Q 3.2984780273437497 0.9720000000000001 3.3517280273437495 1.00875 Q 3.4049780273437498 1.0455 3.4769780273437494 1.06575 Q 3.5489780273437495 1.086 3.6344780273437496 1.086 Q 3.7214780273437498 1.086 3.7912280273437498 1.0650000000000002 Q 3.8609780273437497 1.044 3.91047802734375 1.0050000000000001 Q 3.9599780273437495 0.9660000000000001 3.9869780273437496 0.9105000000000001 Q 4.013978027343749 0.8550000000000001 4.013978027343749 0.7875000000000001 Q 4.013978027343749 0.6945000000000001 3.9674780273437498 0.6352500000000001 Q 3.92097802734375 0.5760000000000001 3.8512280273437494 0.53625 Q 3.7814780273437494 0.49650000000000005 3.69972802734375 0.46950000000000003 Q 3.6179780273437494 0.4425 3.5482280273437494 0.4125000000000001 Q 3.4784780273437494 0.38250000000000006 3.4319780273437495 0.3435 Q 3.3854780273437495 0.3045 3.3854780273437495 0.24 Q 3.3854780273437495 0.20400000000000007 3.4012280273437496 0.1725 Q 3.41697802734375 0.14100000000000001 3.4477280273437496 0.11775000000000002 Q 3.4784780273437494 0.09450000000000003 3.52347802734375 0.08025000000000004 Q 3.5684780273437497 0.06600000000000006 3.6269780273437497 0.06600000000000006 Q 3.72447802734375 0.06600000000000006 3.79272802734375 0.10725000000000007 Q 3.8609780273437497 0.14850000000000008 3.8729780273437497 0.237 L 3.9749780273437496 0.237 Q 3.9659780273437497 0.1815 3.93447802734375 0.1372500000000001 Q 3.9029780273437495 0.09300000000000008 3.8549780273437495 0.06225000000000014 Q 3.8069780273437495 0.031500000000000083 3.74622802734375 0.01574999999999993 Q 3.6854780273437497 0 3.6194780273437495 0 Q 3.5504780273437495 0 3.48822802734375 0.018000000000000016 Q 3.4259780273437497 0.03600000000000003 3.3787280273437497 0.07050000000000001 Q 3.3314780273437496 0.1050000000000001 3.3037280273437495 0.15750000000000008 Q 3.2759780273437498 0.21000000000000008 3.2759780273437498 0.2775000000000001 Q 3.2759780273437498 0.366 3.3209780273437497 0.42000000000000004 Q 3.3659780273437496 0.4740000000000001 3.4342280273437495 0.51 Q 3.5024780273437495 0.546 3.58197802734375 0.5715000000000001 Q 3.6614780273437497 0.597 3.7297280273437496 0.6292500000000001 Q 3.7979780273437496 0.6615 3.8429780273437495 0.7080000000000001 Q 3.88797802734375 0.7545000000000001 3.88797802734375 0.8325 Q 3.88797802734375 0.93 3.81672802734375 0.9750000000000001 Q 3.74547802734375 1.02 3.6269780273437497 1.02 Q 3.5324780273437497 1.02 3.4754780273437498 0.9952500000000001 Q 3.41847802734375 0.9705 3.3884780273437496 0.936 Q 3.35847802734375 0.9015000000000001 3.34797802734375 0.86475 Q 3.3374780273437494 0.8280000000000001 3.33597802734375 0.8025 L 3.2339780273437495 0.8025 M 4.19547802734375 0.543 Q 4.19547802734375 0.627 4.227728027343749 0.7222500000000001 Q 4.25997802734375 0.8175000000000001 4.32897802734375 0.8985000000000001 Q 4.39797802734375 0.9795 4.50447802734375 1.03275 Q 4.61097802734375 1.086 4.75947802734375 1.086 Q 4.85997802734375 1.086 4.94172802734375 1.06125 Q 5.023478027343749 1.0365 5.08872802734375 0.9945 Q 5.15397802734375 0.9525 5.20197802734375 0.89775 Q 5.24997802734375 0.8430000000000001 5.28072802734375 0.7822500000000001 Q 5.31147802734375 0.7215 5.32722802734375 0.66 Q 5.34297802734375 0.5985 5.34297802734375 0.543 Q 5.34297802734375 0.4590000000000001 5.3084780273437495 0.36375 Q 5.27397802734375 0.26850000000000007 5.20197802734375 0.1875 Q 5.12997802734375 0.10650000000000004 5.01972802734375 0.05325000000000002 Q 4.9094780273437495 0 4.75947802734375 0 Q 4.61097802734375 0 4.50447802734375 0.05249999999999999 Q 4.39797802734375 0.1050000000000001 4.32897802734375 0.18525000000000003 Q 4.25997802734375 0.26550000000000007 4.227728027343749 0.36150000000000004 Q 4.19547802734375 0.4575 4.19547802734375 0.543 M 4.34247802734375 0.543 Q 4.34247802734375 0.43800000000000006 4.37472802734375 0.35025000000000006 Q 4.40697802734375 0.26250000000000007 4.4632280273437495 0.1995 Q 4.51947802734375 0.13650000000000007 4.59597802734375 0.10125000000000006 Q 4.67247802734375 0.06600000000000006 4.76247802734375 0.06600000000000006 Q 4.85097802734375 0.06600000000000006 4.929728027343749 0.10125000000000006 Q 5.00847802734375 0.13650000000000007 5.06772802734375 0.1995 Q 5.12697802734375 0.26250000000000007 5.161478027343749 0.35025000000000006 Q 5.19597802734375 0.43800000000000006 5.19597802734375 0.543 Q 5.19597802734375 0.6480000000000001 5.161478027343749 0.7357500000000001 Q 5.12697802734375 0.8235000000000001 5.06772802734375 0.8865000000000001 Q 5.00847802734375 0.9495 4.929728027343749 0.98475 Q 4.85097802734375 1.02 4.76247802734375 1.02 Q 4.67247802734375 1.02 4.59597802734375 0.98475 Q 4.51947802734375 0.9495 4.4632280273437495 0.8865000000000001 Q 4.40697802734375 0.8235000000000001 4.37472802734375 0.7357500000000001 Q 4.34247802734375 0.6480000000000001 4.34247802734375 0.543 M 6.5579633789062495 0.6000000000000001 L 6.26096337890625 0.6000000000000001 L 6.26096337890625 0.6615 L 6.42896337890625 0.6615 L 6.42896337890625 0.933 Q 6.36146337890625 0.9765 6.29096337890625 0.9975 Q 6.22046337890625 1.0185 6.13046337890625 1.0185 Q 6.01196337890625 1.0185 5.92346337890625 0.9825 Q 5.83496337890625 0.9465000000000001 5.77646337890625 0.88275 Q 5.71796337890625 0.8190000000000001 5.68871337890625 0.7312500000000001 Q 5.65946337890625 0.6435000000000001 5.65946337890625 0.5385000000000001 Q 5.65946337890625 0.43500000000000005 5.68721337890625 0.3480000000000001 Q 5.7149633789062495 0.261 5.77046337890625 0.19800000000000006 Q 5.82596337890625 0.135 5.90621337890625 0.10050000000000003 Q 5.98646337890625 0.06600000000000006 6.09296337890625 0.06600000000000006 Q 6.16346337890625 0.06600000000000006 6.22496337890625 0.08100000000000007 Q 6.28646337890625 0.09600000000000009 6.33446337890625 0.12 Q 6.38246337890625 0.14400000000000002 6.41321337890625 0.17475000000000007 Q 6.4439633789062505 0.20550000000000002 6.45296337890625 0.237 L 6.56096337890625 0.237 Q 6.54746337890625 0.20400000000000007 6.51521337890625 0.16275000000000006 Q 6.48296337890625 0.12150000000000005 6.42746337890625 0.08550000000000002 Q 6.3719633789062495 0.0495000000000001 6.29021337890625 0.02475000000000005 Q 6.20846337890625 0 6.09746337890625 0 Q 5.96996337890625 0 5.86271337890625 0.03600000000000003 Q 5.75546337890625 0.07200000000000006 5.67746337890625 0.13950000000000007 Q 5.59946337890625 0.20700000000000007 5.55596337890625 0.30525 Q 5.51246337890625 0.4035000000000001 5.51246337890625 0.528 Q 5.51246337890625 0.6345000000000001 5.54621337890625 0.7342500000000001 Q 5.57996337890625 0.8340000000000001 5.64971337890625 0.9127500000000001 Q 5.71946337890625 0.9915 5.82746337890625 1.03875 Q 5.93546337890625 1.086 6.08546337890625 1.086 Q 6.19796337890625 1.086 6.28496337890625 1.06125 Q 6.3719633789062495 1.0365 6.42896337890625 1.0065 L 6.42896337890625 1.068 L 6.5579633789062495 1.068 L 6.5579633789062495 0.6000000000000001 M 6.83248828125 0.018000000000000016 L 6.83248828125 1.068 L 6.968988281250001 1.068 L 6.968988281250001 0.6045 L 7.03498828125 0.6045 Q 7.07698828125 0.6045 7.10473828125 0.6120000000000001 Q 7.13248828125 0.6195 7.1549882812500005 0.6375000000000001 Q 7.1774882812500005 0.6555 7.19698828125 0.684 Q 7.21648828125 0.7125000000000001 7.24348828125 0.7545000000000001 L 7.36198828125 0.93 Q 7.38448828125 0.9645 7.40623828125 0.9930000000000001 Q 7.42798828125 1.0215 7.45348828125 1.04175 Q 7.47898828125 1.062 7.51123828125 1.074 Q 7.54348828125 1.086 7.58848828125 1.086 Q 7.62148828125 1.086 7.64248828125 1.083 Q 7.66348828125 1.08 7.68448828125 1.068 L 7.68448828125 1.0125 Q 7.67698828125 1.014 7.6694882812500005 1.01475 Q 7.66198828125 1.0155 7.65448828125 1.0155 Q 7.6229882812500005 1.0155 7.5989882812500005 1.0065 Q 7.5749882812500005 0.9975 7.55398828125 0.9802500000000001 Q 7.532988281250001 0.9630000000000001 7.51348828125 0.93825 Q 7.49398828125 0.9135000000000001 7.47298828125 0.8820000000000001 Q 7.40998828125 0.7905 7.37548828125 0.7357500000000001 Q 7.3409882812500005 0.681 7.32073828125 0.651 Q 7.30048828125 0.621 7.28773828125 0.6075 Q 7.27498828125 0.5940000000000001 7.25698828125 0.5850000000000001 L 7.24198828125 0.5775000000000001 L 7.24198828125 0.5715000000000001 Q 7.31398828125 0.5670000000000001 7.3657382812500005 0.54 Q 7.41748828125 0.513 7.45048828125 0.47250000000000003 Q 7.4834882812500005 0.43200000000000005 7.49848828125 0.38475000000000004 Q 7.51348828125 0.3375 7.51348828125 0.2925000000000001 Q 7.51348828125 0.252 7.49773828125 0.20400000000000007 Q 7.4819882812500005 0.15600000000000003 7.44373828125 0.11475000000000002 Q 7.40548828125 0.07350000000000001 7.33948828125 0.04574999999999996 Q 7.27348828125 0.018000000000000016 7.17298828125 0.018000000000000016 L 6.83248828125 0.018000000000000016 M 6.968988281250001 0.08400000000000007 L 7.12048828125 0.08400000000000007 Q 7.1774882812500005 0.08400000000000007 7.2232382812500004 0.10050000000000003 Q 7.26898828125 0.11699999999999999 7.30198828125 0.14625 Q 7.33498828125 0.1755 7.35223828125 0.21600000000000008 Q 7.36948828125 0.25650000000000006 7.36948828125 0.3045 Q 7.36948828125 0.3450000000000001 7.35373828125 0.3862500000000001 Q 7.33798828125 0.4275000000000001 7.30648828125 0.46125000000000005 Q 7.27498828125 0.495 7.22923828125 0.516 Q 7.18348828125 0.537 7.12348828125 0.537 L 6.968988281250001 0.537 L 6.968988281250001 0.08400000000000007 M 8.4975146484375 0.7590000000000001 L 8.6415146484375 1.068 L 8.7870146484375 1.068 L 8.298014648437501 0.018000000000000016 L 8.2230146484375 0.018000000000000016 L 7.7790146484375 1.068 L 7.8480146484375 1.068 L 7.9800146484375 0.7590000000000001 L 8.4975146484375 0.7590000000000001 M 8.4660146484375 0.6915 L 8.008514648437501 0.6915 L 8.2245146484375 0.18600000000000005 L 8.2305146484375 0.18600000000000005 L 8.4660146484375 0.6915 M 9.153006591796874 0.6300000000000001 Q 9.192006591796874 0.6405000000000001 9.237006591796874 0.6472500000000001 Q 9.282006591796875 0.654 9.336006591796874 0.654 Q 9.427506591796874 0.654 9.498006591796875 0.6285000000000001 Q 9.568506591796874 0.603 9.615756591796874 0.5587500000000001 Q 9.663006591796874 0.5145000000000001 9.687006591796875 0.4567500000000001 Q 9.711006591796874 0.399 9.711006591796874 0.3330000000000001 Q 9.711006591796874 0.27 9.690006591796875 0.21225000000000005 Q 9.669006591796874 0.15450000000000008 9.626256591796874 0.11175000000000002 Q 9.583506591796874 0.06900000000000006 9.519006591796874 0.043500000000000094 Q 9.454506591796875 0.018000000000000016 9.367506591796875 0.018000000000000016 L 9.016506591796874 0.018000000000000016 L 9.016506591796874 1.068 L 9.153006591796874 1.068 L 9.153006591796874 0.6300000000000001 M 9.153006591796874 0.08400000000000007 L 9.310506591796875 0.08400000000000007 Q 9.373506591796875 0.08400000000000007 9.421506591796874 0.10650000000000004 Q 9.469506591796875 0.129 9.501006591796875 0.16575000000000006 Q 9.532506591796874 0.2025 9.548256591796875 0.24825000000000008 Q 9.564006591796876 0.29400000000000004 9.564006591796876 0.3390000000000001 Q 9.564006591796876 0.38250000000000006 9.549756591796875 0.4267500000000001 Q 9.535506591796874 0.4710000000000001 9.504006591796875 0.507 Q 9.472506591796874 0.543 9.424506591796874 0.5655 Q 9.376506591796876 0.5880000000000001 9.309006591796875 0.5880000000000001 Q 9.262506591796875 0.5880000000000001 9.223506591796875 0.58425 Q 9.184506591796875 0.5805 9.153006591796874 0.5685 L 9.153006591796874 0.08400000000000007 M 10.076970703125 0.546 L 10.705470703125 0.546 L 10.705470703125 1.068 L 10.841970703125 1.068 L 10.841970703125 0.018000000000000016 L 10.705470703125 0.018000000000000016 L 10.705470703125 0.4770000000000001 L 10.076970703125 0.4770000000000001 L 10.076970703125 0.018000000000000016 L 9.940470703125 0.018000000000000016 L 9.940470703125 1.068 L 10.076970703125 1.068 L 10.076970703125 0.546 M 11.071475830078125 0.018000000000000016 L 11.434475830078124 0.6705000000000001 L 11.434475830078124 1.068 L 11.570975830078124 1.068 L 11.570975830078124 0.657 L 11.939975830078126 0.018000000000000016 L 11.858975830078125 0.018000000000000016 L 11.537975830078125 0.5715000000000001 L 11.531975830078125 0.5715000000000001 L 11.225975830078125 0.018000000000000016 L 11.071475830078125 0.018000000000000016" fill="#102036" fill-rule="nonzero"></path></g><g></g><g clip-path="url(#SvgjsClipPath1119)"><g clip-path="url(#b97c74a25-80bb-4920-913e-4e0cd6322ed812abdeb1-ece9-49bf-b91f-4f4ab25f3ed3)"><path d=" M 11.182102563465246 -6.743622328079187 L 11.182102563465246 -9.260577870890378 L 7.7569010851063664 -9.260577870890378 L 7.7569010851063664 -6.607152791964905 L 8.055838923090269 -6.607152791964905 L 8.055838923090269 -6.339586158416413 L 8.347101848674072 -6.339586158416413 L 8.347101848674072 -6.19792006703123 L 8.575238619767049 -6.19792006703123 L 8.575238619767049 -3.789868333297295 L 8.659166984742312 -3.789868333297295 L 8.659166984742312 -3.370114582615148 L 8.76402547540868 -3.370114582615148 L 8.76402547540868 -1.2762705646611483 L 9.114736993291594 -1.2762705646611483 L 9.114736993291594 -6.743622328079187 L 9.447604339844272 -6.743622328079187 L 9.447604339844272 -7.0462377282548045 L 10.960665351321524 -7.0462377282548045 L 10.960665351321524 -6.743622328079187 Z M 7.363385941192063 -6.607152791964905 L 7.709620426841583 -6.607152791964905 L 7.709620426841583 -6.87075405410668 L 7.363385941192063 -6.87075405410668 Z M 7.363385941192063 -6.910119958958861 L 7.709620426841583 -6.910119958958861 L 7.709620426841583 -7.165854435890532 L 7.363385941192063 -7.165854435890532 Z M 7.363385941192063 -7.205220340742713 L 7.709620426841583 -7.205220340742713 L 7.709620426841583 -7.461018775277719 L 7.363385941192063 -7.461018775277719 Z M 7.363385941192063 -7.500320722526565 L 7.709620426841583 -7.500320722526565 L 7.709620426841583 -7.756119157061571 L 7.363385941192063 -7.756119157061571 Z M 7.363385941192063 -7.795421104310417 L 7.709620426841583 -7.795421104310417 L 7.709620426841583 -8.051219538845423 L 7.363385941192063 -8.051219538845423 Z M 7.363385941192063 -8.090585443697604 L 7.709620426841583 -8.090585443697604 L 7.709620426841583 -8.346319920629277 L 7.363385941192063 -8.346319920629277 Z M 7.363385941192063 -8.38570181488229 L 7.709620426841583 -8.38570181488229 L 7.709620426841583 -9.260577870890378 L 7.363385941192063 -9.260577870890378 Z M 7.017167444943376 -6.607152791964905 L 7.316105282927279 -6.607152791964905 L 7.316105282927279 -9.260577870890378 L 5.109663904303475 -9.260577870890378 L 5.109663904303475 -8.704210679486449 L 5.28745005217163 -8.704210679486449 L 5.28745005217163 -7.41055622624706 L 5.400926829887277 -7.41055622624706 L 5.400926829887277 -7.0928148528829125 L 5.665711307690735 -7.0928148528829125 L 5.665711307690735 -6.82046738848519 L 5.756483136222753 -6.82046738848519 L 5.756483136222753 -6.593497843653061 L 5.938058772088457 -6.593497843653061 L 5.938058772088457 -2.2446206579421224 L 6.123999514381718 -2.2446206579421224 L 6.123999514381718 -1.2762705646611483 L 6.308868966819131 -1.2762705646611483 L 6.308868966819131 -3.370114582615148 L 6.413839383291335 -3.370114582615148 L 6.413839383291335 -3.789868333297295 L 6.497767748266597 -3.789868333297295 L 6.497767748266597 -6.19792006703123 L 6.725904519359576 -6.19792006703123 L 6.725904519359576 -6.339586158416413 L 7.017167444943378 -6.339586158416413 Z M 5.242056143205203 -8.658816770520023 L 5.09831142971166 -8.658816770520023 L 5.09831142971166 -8.363780346339503 L 5.242056143205203 -8.363780346339503 Z M 4.909188796652526 -7.41055622624706 L 5.052933510146069 -7.41055622624706 L 5.052933510146069 -7.637509781678356 L 4.909188796652526 -7.637509781678356 Z M 4.909188796652526 -7.682903690644782 L 5.052933510146069 -7.682903690644782 L 5.052933510146069 -7.977940114825301 L 4.909188796652526 -7.977940114825301 Z M 4.909188796652526 -8.023334023791726 L 5.052933510146069 -8.023334023791726 L 5.052933510146069 -8.318370447972244 L 4.909188796652526 -8.318370447972244 Z M 4.909188796652526 -8.36376435693867 L 5.052933510146069 -8.36376435693867 L 5.052933510146069 -8.658800781119188 L 4.909188796652526 -8.658800781119188 Z M 4.863794887686098 -8.704210679486447 L 5.041581035554253 -8.704210679486447 L 5.041581035554253 -9.260577870890378 L 0.8028388427847526 -9.260577870890378 L 0.8028388427847526 -4.2187840106570595 L 1.0262107724293366 -4.2187840106570595 L 2.8233075003136294 -6.0158807385413535 L 3.127569808775101 -6.0158807385413535 L 3.127569808775101 -8.274575479089172 L 3.1828931356591563 -8.274575479089172 L 3.1828931356591563 -6.0158807385413535 L 3.840121467521069 -6.0158807385413535 L 3.866951682119753 -0.5500000000000007 L 4.213186167769273 -0.5500000000000007 L 4.213186167769273 -6.593497843653061 L 4.394745814234144 -6.593497843653061 L 4.394745814234144 -6.82046738848519 L 4.4855336321669945 -6.82046738848519 L 4.4855336321669945 -7.0928148528829125 L 4.7503181099704515 -7.0928148528829125 L 4.7503181099704515 -7.41055622624706 L 4.863794887686098 -7.41055622624706 Z M 3.740827288344772 -5.927763150547703 L 3.3151574593542152 -5.927763150547703 L 3.3151574593542152 -5.714976204254926 L 3.740827288344772 -5.714976204254926 Z M 3.740827288344772 -5.608534762906036 L 3.3151574593542152 -5.608534762906036 L 3.3151574593542152 -5.395699848410757 L 3.740827288344772 -5.395699848410757 Z M 3.740827288344772 -5.289322364665202 L 3.3151574593542152 -5.289322364665202 L 3.3151574593542152 -5.076551407773258 L 3.740827288344772 -5.076551407773258 Z M 3.740827288344772 -4.970109966424369 L 3.3151574593542152 -4.970109966424369 L 3.3151574593542152 -4.75727505192909 L 3.740827288344772 -4.75727505192909 Z M 3.740827288344772 -4.650945536386035 L 3.3151574593542152 -4.650945536386035 L 3.3151574593542152 -4.438174579494091 L 3.740827288344772 -4.438174579494091 Z M 5.242056143205203 -8.318370447972244 L 5.09831142971166 -8.318370447972244 L 5.09831142971166 -8.023334023791726 L 5.242056143205203 -8.023334023791726 Z M 5.242056143205203 -7.977940114825301 L 5.09831142971166 -7.977940114825301 L 5.09831142971166 -7.682903690644782 L 5.242056143205203 -7.682903690644782 Z M 5.242056143205203 -7.637509781678356 L 5.09831142971166 -7.637509781678356 L 5.09831142971166 -7.41055622624706 L 5.242056143205203 -7.41055622624706 Z" fill="#102036" transform="matrix(1,0,0,1,0,0)" fill-rule="nonzero"></path></g></g></g><defs><clipPath id="SvgjsClipPath1119"><path d=" M 0.8028388427847526 -9.260577870890376 h 10.379263720680495 v 8.710577870890376 h -10.379263720680495 Z"></path></clipPath><clipPath id="b97c74a25-80bb-4920-913e-4e0cd6322ed812abdeb1-ece9-49bf-b91f-4f4ab25f3ed3"><path d=" M 0.6937911290999957 -9.336703408258872 L 11.198091964298786 -9.336703408258872 L 11.198091964298786 -0.534010599166459 L 0.6937911290999957 -0.534010599166459 Z"></path></clipPath></defs></svg>